<?xml version="1.0" encoding="UTF-8"?>
<svg id="Layer_1" data-name="Layer 1" xmlns="http://www.w3.org/2000/svg" viewBox="0 0 552.67 156.43">
  <defs>
    <style>
      .cls-1 {
        fill: #ffffff;
      }
    </style>
  </defs>
  <g>
    <path class="cls-1" d="m.43,89.13l4.9-.58c5.04-.58,7.2-1.44,7.2-2.3V3.31c0-1.01-.86-1.3-8.21-2.02L.58.86.14,0h71.42l1.73,28.66-1.01.14-.58-1.87C66.24,9.79,60.33,1.3,41.62,1.44h-12.82v41.62l6.34-.14c13.97-.72,19.15-3.17,22.32-12.82l.86-2.3,1.01.14-3.46,32.4-1.01-.14-.14-2.16c-.72-10.8-5.18-12.53-20.74-13.39l-5.18-.29v43.49l15.84.72c19.3-.29,26.93-11.95,32.69-26.5l.72-1.87,1.01.14-4.61,29.66H0l.43-.86Z"/>
    <path class="cls-1" d="m90.14,89.13l5.76-.58c5.04-.58,6.34-1.44,6.34-2.3V3.31c0-1.01-.43-1.3-7.78-2.02l-4.18-.43-.43-.86h44.06l-.43.86-8.21.58c-4.75.43-6.91,1.3-6.91,2.3v84.24l12.38.72c18.29,0,23.9-10.37,31.97-28.66l.86-1.87h.86l-4.61,31.82h-70.13l.43-.86Z"/>
    <path class="cls-1" d="m174.81,89.13l5.76-.58c5.04-.58,6.34-1.44,6.34-2.3V3.31c0-1.01-.43-1.3-7.78-2.02l-4.18-.43-.43-.86h44.06l-.43.86-8.21.58c-4.75.43-6.91,1.3-6.91,2.3v84.24l12.38.72c18.29,0,23.9-10.37,31.97-28.66l.86-1.87h.86l-4.61,31.82h-70.13l.43-.86Z"/>
    <path class="cls-1" d="m260.64,89.13l5.76-.58c4.9-.43,6.91-1.44,6.91-2.3V3.31c0-1.01-1.01-1.3-8.35-2.02l-4.18-.43-.43-.86h42.05l-.43.86-5.76.58c-4.9.43-6.91,1.44-6.91,2.3v82.94c0,1.01,1.01,1.3,8.35,2.02l4.18.43.43.86h-42.05l.43-.86Z"/>
    <path class="cls-1" d="m311.47,89.13l6.77-.58c5.04-.58,6.77-1.44,6.77-2.3V3.31c0-1.01-.86-1.3-8.21-2.02l-5.18-.43-.43-.86h41.33c24.48,0,35.86,7.63,35.86,21.6,0,14.83-14.83,24.77-37.15,24.77-3.89,0-7.34-.29-9.94-.72v41.04c0,1.01.72,1.44,8.21,2.02l6.62.43.43.86h-45.5l.43-.86Zm59.76-65.52c0-14.54-6.19-22.17-21.89-22.17l-8.06.29v41.76c2.59.72,4.61,1.3,9.65,1.3,12.1,0,20.3-8.06,20.3-21.17Z"/>
    <path class="cls-1" d="m401.33,85.5l-1.15-21.4h.86l4.75,9.39c5.47,10.77,13.54,15.46,24.19,15.46,11.95,0,19.73-7.73,19.73-18.77s-8.78-16.15-21.46-20.43c-14.11-4.83-25.2-11.04-25.2-24.85,0-12.7,11.23-24.57,29.09-24.57,7.78,0,14.69,1.79,20.02,3.31l5.47-1.79.29,23.33h-.72l-10.66-18.77c-3.6-2.62-8.06-4.69-14.54-4.69-9.5,0-16.7,6.49-16.7,15.05,0,10.35,9.22,14.63,20.74,18.5,15.98,5.38,26.64,12.15,26.64,27.33,0,13.67-13.25,27.75-32.98,27.75-9.5,0-20.45-2.21-28.37-4.83Z"/>
    <path class="cls-1" d="m474.04,89.13l4.9-.58c5.04-.58,7.2-1.44,7.2-2.3V3.31c0-1.01-.86-1.3-8.21-2.02l-3.74-.43-.43-.86h71.42l1.73,28.66-1.01.14-.58-1.87c-5.47-17.14-11.38-25.63-30.1-25.49h-12.82v41.62l6.34-.14c13.97-.72,19.15-3.17,22.32-12.82l.86-2.3,1.01.14-3.46,32.4-1.01-.14-.14-2.16c-.72-10.8-5.18-12.53-20.74-13.39l-5.18-.29v43.49l15.84.72c19.29-.29,26.93-11.95,32.69-26.5l.72-1.87,1.01.14-4.61,29.66h-74.45l.43-.86Z"/>
  </g>
  <g>
    <path class="cls-1" d="m161.46,134.77h1.58v19.84h10.16v1.46h-11.74v-21.3Z"/>
    <path class="cls-1" d="m193.99,145.42c0-6.15,4.47-11.01,10.53-11.01s10.53,4.87,10.53,11.01-4.44,11.01-10.53,11.01-10.53-4.87-10.53-11.01Zm1.64,0c0,5.23,3.56,9.46,8.88,9.46s8.88-4.23,8.88-9.46-3.56-9.46-8.88-9.46-8.88,4.23-8.88,9.46Z"/>
    <path class="cls-1" d="m239.67,134.77l13.08,18.56v-18.56h1.58v21.3h-1.58l-13.08-18.62v18.62h-1.58v-21.3h1.58Z"/>
    <path class="cls-1" d="m284.52,134.77c6.15,0,10.53,4.5,10.53,10.65s-4.38,10.65-10.53,10.65h-5.81v-21.3h5.81Zm-.3,19.84c5.6,0,9.19-3.68,9.19-9.19s-3.59-9.19-9.19-9.19h-3.92v18.38h3.92Z"/>
    <path class="cls-1" d="m316.74,145.42c0-6.15,4.47-11.01,10.53-11.01s10.53,4.87,10.53,11.01-4.44,11.01-10.53,11.01-10.53-4.87-10.53-11.01Zm1.64,0c0,5.23,3.56,9.46,8.88,9.46s8.88-4.23,8.88-9.46-3.56-9.46-8.88-9.46-8.88,4.23-8.88,9.46Z"/>
    <path class="cls-1" d="m362.42,134.77l13.08,18.56v-18.56h1.58v21.3h-1.58l-13.08-18.62v18.62h-1.58v-21.3h1.58Z"/>
  </g>
</svg>